<?xml version="1.0" standalone="no"?>
<!DOCTYPE svg PUBLIC "-//W3C//DTD SVG 20010904//EN"
 "http://www.w3.org/TR/2001/REC-SVG-20010904/DTD/svg10.dtd">
<svg version="1.0" xmlns="http://www.w3.org/2000/svg"
 width="265.000000pt" height="265.000000pt" viewBox="0 0 265.000000 265.000000"
 preserveAspectRatio="xMidYMid meet">
<metadata>
Created by potrace 1.11, written by Peter Selinger 2001-2013
</metadata>
<g transform="translate(0.000000,265.000000) scale(0.100000,-0.100000)"
fill="#000000" stroke="none">
<path d="M307 2639 c-129 -30 -241 -134 -286 -264 -20 -59 -20 -72 -18 -1065
l2 -1005 31 -65 c38 -80 83 -133 149 -175 105 -67 58 -64 1130 -65 1072 0
1047 -1 1148 63 68 44 113 96 151 177 l31 65 2 1005 2 1005 -22 62 c-41 114
-117 195 -227 244 l-55 24 -1000 2 c-555 0 -1017 -3 -1038 -8z"/>
</g>
</svg>
